<?xml version="1.0" standalone="no"?>
<!DOCTYPE svg PUBLIC "-//W3C//DTD SVG 20010904//EN"
 "http://www.w3.org/TR/2001/REC-SVG-20010904/DTD/svg10.dtd">
<svg version="1.0" xmlns="http://www.w3.org/2000/svg"
 width="3503.000000pt" height="4108.000000pt" viewBox="0 0 3503.000000 4108.000000"
 preserveAspectRatio="xMidYMid meet">

<g transform="translate(0.000000,4108.000000) scale(0.100000,-0.100000)"
fill="#000000" stroke="none">
<path d="M17633 39867 c-21 -19 -45 -38 -55 -43 -17 -9 -354 -332 -398 -380
-14 -16 -62 -64 -108 -109 -305 -295 -523 -518 -557 -569 -33 -50 -48 -62 -87
-75 -26 -9 -57 -26 -70 -37 -13 -12 -39 -29 -58 -39 -19 -9 -54 -36 -77 -59
-71 -70 -260 -226 -274 -226 -4 0 -31 -20 -60 -45 -29 -25 -58 -45 -64 -45 -5
0 -33 -20 -60 -44 -28 -24 -68 -52 -90 -63 -22 -12 -49 -31 -60 -43 -11 -12
-34 -28 -51 -35 -18 -7 -49 -29 -70 -48 -22 -19 -57 -42 -79 -51 -22 -10 -53
-30 -70 -46 -16 -15 -48 -36 -70 -45 -22 -9 -53 -29 -70 -44 -16 -16 -50 -39
-75 -51 -24 -13 -60 -35 -80 -51 -19 -15 -47 -31 -62 -34 -14 -4 -49 -25 -76
-48 -69 -57 -185 -122 -255 -142 -31 -9 -71 -28 -87 -41 -36 -31 -142 -92
-230 -134 -36 -17 -85 -44 -110 -60 -25 -15 -61 -31 -80 -35 -45 -9 -89 -31
-120 -60 -14 -13 -58 -32 -99 -43 -64 -18 -79 -26 -111 -64 -37 -42 -39 -43
-95 -41 -54 3 -60 1 -90 -30 -21 -21 -51 -39 -81 -47 -27 -7 -82 -30 -123 -52
-41 -21 -86 -38 -101 -38 -14 0 -52 -15 -83 -34 -31 -19 -76 -37 -99 -41 -71
-12 -119 -33 -159 -70 -43 -38 -53 -42 -157 -49 -57 -4 -90 -13 -155 -44 -45
-22 -104 -45 -132 -51 -27 -7 -70 -25 -95 -41 -25 -16 -83 -38 -130 -50 -47
-11 -101 -31 -121 -45 -26 -17 -66 -28 -137 -39 -58 -8 -123 -25 -154 -40 -66
-31 -139 -53 -200 -61 -33 -4 -60 -16 -88 -40 -53 -44 -94 -55 -205 -55 -78 0
-95 -3 -130 -25 -22 -13 -55 -25 -73 -25 -18 0 -47 -7 -64 -16 -17 -9 -73 -22
-125 -30 -64 -10 -105 -22 -131 -38 -26 -17 -64 -28 -127 -36 -158 -20 -219
-32 -255 -50 -52 -26 -103 -38 -221 -49 -67 -7 -139 -21 -195 -40 -84 -28
-190 -44 -429 -66 -41 -3 -92 -16 -124 -30 -38 -18 -85 -28 -165 -36 -61 -5
-160 -15 -221 -21 -60 -6 -134 -10 -162 -10 -39 1 -66 -5 -99 -23 -33 -18 -63
-25 -100 -25 -29 0 -75 -4 -101 -10 -49 -9 -427 -31 -608 -35 -66 -1 -117 -8
-150 -20 -31 -11 -102 -21 -190 -26 -580 -36 -1984 -36 -2725 -1 -125 6 -165
12 -207 30 -41 17 -71 21 -130 20 -114 -2 -540 21 -596 32 -26 6 -73 10 -103
10 -41 0 -67 7 -98 25 -32 19 -55 24 -97 23 -30 0 -103 4 -164 10 -60 6 -159
15 -220 21 -80 7 -125 17 -165 35 -33 15 -83 28 -125 31 -235 21 -345 38 -430
66 -58 19 -135 34 -216 43 -93 10 -140 20 -183 39 -38 18 -103 33 -199 47
-100 15 -162 30 -209 51 -150 65 -239 56 -224 -23 3 -18 12 -76 20 -128 7 -52
28 -133 45 -180 21 -55 37 -125 46 -198 9 -72 25 -138 43 -185 36 -89 41 -110
52 -210 6 -50 20 -103 39 -145 36 -79 47 -123 56 -216 5 -46 18 -94 41 -143
23 -52 38 -106 49 -181 11 -72 27 -133 50 -187 22 -52 36 -104 41 -150 7 -82
23 -139 57 -215 15 -31 30 -91 37 -140 10 -81 34 -174 50 -195 14 -19 38 -120
46 -190 3 -39 23 -117 44 -175 22 -62 41 -136 45 -180 5 -45 23 -118 46 -183
29 -81 41 -134 49 -213 6 -63 17 -123 29 -150 20 -45 51 -180 69 -304 5 -36
23 -119 40 -185 29 -113 43 -203 58 -373 3 -40 15 -97 26 -125 24 -62 44 -189
58 -382 14 -186 26 -284 40 -320 32 -80 48 -471 49 -1165 0 -680 -15 -1033
-48 -1115 -7 -16 -16 -61 -22 -100 -9 -64 -15 -127 -34 -365 -4 -47 -16 -109
-26 -138 -24 -70 -45 -188 -59 -335 -6 -65 -20 -144 -30 -175 -29 -89 -58
-221 -65 -292 -3 -36 -21 -110 -40 -165 -19 -55 -39 -140 -45 -190 -12 -97
-31 -172 -61 -241 -11 -24 -24 -83 -30 -130 -11 -85 -31 -160 -63 -236 -9 -20
-23 -82 -31 -138 -8 -56 -21 -114 -29 -128 -28 -57 -55 -153 -65 -232 -8 -58
-21 -104 -46 -155 -25 -53 -39 -100 -49 -172 -9 -60 -26 -125 -44 -168 -17
-38 -38 -114 -47 -168 -10 -60 -29 -126 -50 -170 -18 -40 -36 -97 -39 -127 -9
-69 -33 -159 -51 -186 -19 -29 -42 -117 -50 -189 -4 -33 -22 -95 -41 -138 -19
-43 -41 -116 -49 -163 -8 -47 -28 -116 -45 -154 -18 -41 -34 -101 -40 -147
-12 -92 -12 -93 -56 -206 -19 -49 -39 -122 -44 -163 -6 -43 -23 -104 -41 -145
-17 -39 -39 -117 -49 -172 -10 -56 -34 -149 -53 -207 -20 -58 -40 -142 -46
-187 -6 -47 -24 -116 -41 -159 -18 -45 -37 -120 -46 -181 -8 -57 -24 -127 -34
-156 -10 -29 -26 -72 -35 -97 -9 -25 -21 -88 -26 -140 -6 -52 -19 -119 -30
-150 -34 -95 -59 -192 -59 -234 -1 -44 -14 -102 -55 -236 -14 -47 -32 -141
-40 -210 -16 -135 -20 -150 -58 -252 -17 -44 -29 -105 -37 -185 -7 -75 -24
-161 -46 -236 -21 -71 -39 -161 -45 -225 -6 -59 -17 -132 -26 -162 -32 -117
-42 -150 -48 -160 -3 -5 -13 -79 -21 -165 -12 -124 -20 -170 -43 -227 -23 -59
-32 -105 -46 -243 -15 -154 -45 -311 -75 -390 -6 -16 -15 -86 -20 -155 -8
-119 -17 -171 -61 -355 -10 -44 -21 -109 -24 -145 -22 -283 -28 -327 -50 -380
-25 -60 -38 -156 -55 -405 -8 -106 -19 -184 -32 -230 -12 -38 -26 -97 -31
-130 -6 -35 -11 -591 -14 -1354 l-3 -1293 26 -132 c14 -72 30 -139 35 -148 5
-9 15 -88 23 -175 9 -93 23 -185 35 -223 25 -78 46 -185 66 -341 8 -64 26
-151 40 -195 14 -43 32 -131 41 -194 15 -114 34 -196 59 -257 14 -32 24 -82
48 -238 8 -49 28 -125 45 -168 16 -42 35 -113 41 -157 6 -44 26 -120 47 -172
19 -50 40 -118 45 -150 5 -32 24 -95 43 -140 18 -46 39 -114 46 -153 7 -38 28
-102 47 -143 18 -40 40 -106 48 -146 8 -40 29 -98 46 -130 17 -32 40 -91 50
-133 11 -42 32 -96 49 -120 16 -25 34 -70 41 -101 6 -32 28 -91 50 -132 21
-41 43 -94 49 -118 6 -23 24 -58 41 -76 18 -21 37 -61 48 -100 10 -37 30 -83
44 -104 14 -20 35 -63 46 -95 11 -31 33 -74 49 -95 16 -20 35 -54 42 -75 6
-21 28 -59 47 -84 20 -26 40 -63 45 -82 6 -20 26 -58 44 -84 19 -26 45 -71 58
-100 12 -29 31 -58 40 -66 10 -8 29 -38 43 -65 14 -28 36 -62 49 -76 12 -14
32 -46 43 -71 11 -25 30 -54 42 -65 11 -10 39 -49 60 -86 22 -37 44 -70 50
-74 6 -4 20 -25 30 -48 10 -23 30 -53 44 -66 15 -14 33 -38 41 -53 8 -15 36
-52 62 -82 26 -29 61 -72 77 -95 31 -44 86 -117 143 -192 18 -24 71 -83 116
-133 46 -49 105 -115 131 -145 73 -84 507 -519 620 -622 55 -49 125 -113 155
-142 31 -28 80 -71 109 -96 30 -25 74 -64 98 -87 24 -24 48 -43 53 -43 5 0 30
-18 55 -40 25 -22 50 -40 55 -40 5 0 31 -19 58 -43 127 -109 158 -134 197
-157 46 -27 102 -67 168 -117 23 -18 60 -45 82 -59 22 -14 56 -41 75 -59 19
-18 46 -36 60 -40 14 -4 43 -22 65 -40 22 -17 60 -43 85 -57 25 -14 54 -36 65
-48 11 -12 43 -32 70 -45 28 -12 56 -30 64 -39 8 -10 38 -29 65 -43 28 -14 65
-38 81 -54 17 -15 49 -35 73 -43 24 -9 62 -32 85 -51 22 -19 59 -41 82 -47 22
-7 57 -26 78 -44 21 -18 59 -38 84 -46 25 -7 62 -27 82 -44 20 -16 58 -38 85
-48 26 -10 63 -31 81 -47 18 -16 52 -36 76 -44 23 -9 65 -31 93 -49 28 -19 69
-39 91 -45 22 -6 66 -29 99 -51 32 -22 67 -40 78 -40 23 0 71 -24 116 -58 18
-13 52 -28 76 -33 52 -10 99 -30 144 -63 18 -14 56 -29 85 -36 29 -6 71 -24
94 -40 22 -17 70 -37 105 -46 34 -9 88 -31 118 -50 34 -21 84 -39 130 -49 41
-8 86 -24 100 -34 45 -32 69 -42 161 -61 49 -11 102 -28 117 -38 36 -26 82
-40 183 -56 53 -9 109 -26 147 -45 37 -19 89 -35 134 -41 99 -14 144 -26 205
-56 35 -17 87 -30 160 -40 133 -17 166 -25 220 -53 29 -14 89 -27 187 -41 154
-20 212 -33 262 -55 17 -8 89 -22 160 -30 235 -28 269 -34 314 -54 51 -22 124
-35 295 -52 216 -20 249 -26 296 -47 37 -18 86 -25 240 -37 156 -13 213 -22
291 -46 53 -16 134 -34 180 -39 217 -26 329 -45 393 -66 39 -13 113 -28 165
-34 103 -11 210 -35 250 -55 25 -13 161 -38 275 -50 33 -4 91 -20 130 -36 46
-20 113 -37 199 -50 71 -10 134 -24 141 -29 23 -19 130 -51 203 -60 47 -6 99
-22 145 -44 49 -23 105 -39 177 -51 63 -10 115 -25 131 -36 39 -28 75 -39 167
-55 60 -9 96 -22 129 -43 42 -28 83 -40 191 -56 23 -4 55 -17 70 -29 43 -36
70 -47 134 -56 41 -6 79 -20 117 -43 34 -22 81 -40 121 -47 37 -7 89 -27 120
-45 30 -18 83 -40 118 -49 35 -9 84 -30 109 -47 25 -18 77 -40 115 -50 43 -11
81 -27 97 -43 27 -25 98 -56 131 -56 10 0 31 -11 47 -24 39 -32 82 -53 127
-61 22 -5 56 -23 82 -46 25 -21 63 -43 86 -49 23 -7 57 -24 77 -40 20 -15 63
-38 96 -50 33 -12 71 -32 85 -45 14 -12 52 -36 86 -53 33 -17 66 -38 74 -47 8
-10 37 -27 65 -39 27 -13 56 -31 64 -40 8 -10 40 -30 70 -46 31 -15 65 -38 76
-50 11 -13 43 -33 70 -45 28 -13 59 -32 69 -44 11 -12 36 -31 55 -43 20 -12
57 -41 83 -65 26 -24 52 -43 57 -43 6 0 33 -20 61 -45 28 -25 55 -45 60 -45
22 0 259 -215 477 -432 209 -208 453 -477 453 -498 0 -6 15 -27 34 -47 18 -21
39 -49 46 -63 7 -14 32 -50 56 -80 24 -30 59 -75 79 -100 19 -25 43 -63 54
-85 10 -22 33 -58 51 -80 18 -22 42 -60 55 -85 13 -25 32 -54 44 -64 12 -11
21 -24 21 -30 0 -21 48 -111 74 -140 15 -17 29 -41 32 -55 3 -14 7 -35 9 -46
4 -18 50 -87 102 -153 18 -23 19 -23 57 -7 39 17 196 163 196 184 0 6 15 28
33 48 18 21 45 59 60 84 14 25 33 52 42 59 9 8 26 32 37 54 11 23 33 55 49 71
15 17 35 49 43 71 8 23 30 62 49 87 19 26 41 63 47 84 7 21 23 49 35 63 12 14
35 45 50 70 15 25 42 61 60 80 17 19 42 52 54 72 13 21 28 41 35 45 7 5 19 18
27 30 56 81 334 372 391 409 21 13 68 54 105 90 38 36 84 73 103 84 19 10 52
35 72 56 20 22 62 59 93 84 30 25 77 64 103 86 26 23 62 49 79 58 18 9 47 29
65 44 18 16 54 40 79 55 26 14 49 33 52 41 3 8 27 27 54 42 26 15 62 39 78 54
17 15 46 33 66 39 20 6 49 25 65 42 16 17 49 41 74 54 25 13 60 37 77 54 18
17 41 31 50 31 19 0 44 15 113 67 24 18 54 33 66 33 13 0 41 15 62 34 21 19
64 46 97 61 33 14 71 36 85 49 14 12 52 33 85 45 33 12 69 31 81 42 12 11 51
31 88 44 37 14 81 36 97 50 17 13 55 32 85 41 30 8 74 31 98 49 26 20 66 38
101 46 32 7 72 23 89 35 53 39 79 51 135 63 29 6 79 27 110 46 31 19 75 37 99
41 23 4 68 22 100 41 31 20 83 42 116 49 32 8 91 30 131 49 39 19 96 40 126
45 30 6 81 23 114 39 66 31 99 43 190 65 33 8 88 26 121 40 34 14 95 32 135
40 41 8 112 30 159 50 55 24 113 40 168 46 82 11 103 16 209 59 28 11 91 25
140 31 111 14 127 18 188 45 59 27 129 41 240 50 53 5 108 18 165 40 67 25
112 35 210 44 148 14 256 30 290 43 57 22 203 46 320 53 69 3 162 13 208 20
45 8 89 12 96 9 8 -3 31 2 52 12 45 19 116 28 409 48 230 17 319 28 440 57 44
10 161 26 260 34 214 19 283 30 390 62 44 13 136 30 205 38 127 15 179 27 280
63 30 11 95 25 144 31 61 7 110 20 153 40 34 17 106 39 159 51 53 11 121 32
150 46 29 14 96 36 149 49 53 13 108 31 121 40 34 22 95 43 177 60 40 8 89 27
117 45 30 19 71 34 110 41 66 10 112 29 146 60 11 10 42 23 70 28 63 12 92 23
136 54 33 22 73 35 149 51 15 3 49 21 77 41 28 19 72 39 98 45 52 12 99 34
129 60 11 10 46 25 77 34 32 9 73 29 90 45 18 15 59 36 92 46 32 10 71 29 86
42 15 13 60 36 100 52 40 17 85 41 99 55 14 13 45 29 68 35 22 6 63 29 89 51
26 21 61 42 78 46 17 3 47 19 67 35 20 15 59 40 85 55 27 14 60 37 74 50 14
13 45 30 69 39 24 8 63 33 86 54 23 21 57 42 76 46 19 4 53 25 76 46 24 22 49
39 57 39 7 0 36 19 62 43 27 24 70 55 95 69 25 15 52 34 59 43 7 9 28 22 45
29 17 8 55 33 83 57 108 93 141 119 178 140 22 13 56 38 77 56 20 18 42 33 47
33 6 0 30 18 53 39 53 50 134 121 277 241 62 52 149 130 194 173 45 43 96 86
113 97 45 27 426 409 456 458 15 22 57 72 94 110 37 39 97 105 133 147 75 89
107 126 216 249 75 85 100 118 177 231 19 28 45 59 57 70 12 11 29 33 36 48 8
15 37 52 64 83 28 30 50 58 50 62 0 4 18 31 40 61 22 29 40 59 40 66 0 7 17
32 38 56 21 24 51 65 66 91 15 25 34 52 43 60 9 7 24 33 35 57 10 24 34 61 53
82 19 21 44 57 56 81 12 24 30 52 40 63 10 11 25 37 33 56 8 20 26 50 39 65
32 38 67 104 67 126 0 10 15 35 34 55 36 41 60 83 69 124 4 14 17 39 29 54 12
16 33 52 46 79 13 28 34 65 47 82 14 18 34 57 45 87 11 30 34 75 50 99 17 23
39 70 49 104 11 33 31 77 44 98 14 20 33 60 43 89 9 29 32 77 50 107 18 30 38
78 45 105 7 28 20 61 29 75 23 33 54 112 69 175 7 27 25 69 40 92 16 23 34 64
40 90 7 26 17 66 22 88 6 22 24 67 41 100 16 33 36 87 43 120 7 33 27 91 44
128 17 37 36 98 42 135 6 37 26 104 45 149 18 45 42 131 53 190 11 63 31 131
47 163 19 39 32 92 45 183 11 73 30 156 44 191 28 69 39 124 54 266 6 56 22
128 40 175 23 64 32 115 45 255 24 255 24 257 46 300 12 24 20 59 20 92 0 29
5 69 10 89 9 33 17 132 25 307 3 80 21 192 37 235 7 19 17 27 34 27 l24 0 0
1040 0 1040 -25 0 c-19 0 -26 7 -34 38 -6 20 -11 62 -11 92 0 30 -5 71 -11 90
-5 19 -12 91 -15 160 -5 166 -31 396 -55 495 -19 81 -31 174 -50 390 -19 218
-25 260 -46 305 -16 34 -24 83 -33 195 -16 209 -44 388 -75 490 -9 28 -20 106
-25 175 -9 129 -16 167 -56 305 -13 48 -29 148 -39 250 -14 139 -22 183 -46
243 -23 57 -32 105 -44 225 -12 116 -23 170 -45 228 -28 77 -43 158 -56 304
-3 45 -17 108 -31 145 -37 99 -50 157 -57 252 -3 48 -15 111 -25 140 -40 112
-52 162 -66 271 -8 62 -24 137 -35 167 -34 87 -39 108 -55 221 -8 59 -26 138
-39 175 -34 96 -43 136 -56 239 -6 49 -22 116 -34 150 -39 100 -46 126 -61
230 -8 62 -26 132 -46 180 -21 52 -37 116 -45 183 -8 56 -21 119 -30 140 -30
70 -53 157 -63 235 -5 46 -20 100 -34 130 -31 64 -42 106 -61 228 -9 60 -26
124 -46 170 -19 43 -36 103 -41 146 -5 40 -25 112 -43 160 -18 49 -39 120 -45
158 -16 87 -33 150 -65 240 -14 38 -30 103 -36 145 -7 48 -22 100 -44 145 -25
51 -38 98 -50 177 -11 76 -24 124 -45 166 -17 33 -35 90 -41 128 -17 107 -30
154 -61 220 -17 34 -33 91 -38 130 -5 38 -25 108 -44 156 -21 50 -41 123 -48
170 -7 54 -23 108 -45 155 -21 44 -38 101 -44 145 -10 72 -26 134 -40 153 -16
23 -50 145 -60 214 -6 40 -21 101 -34 135 -36 91 -44 122 -56 221 -6 50 -25
128 -42 175 -21 58 -35 124 -44 209 -8 68 -23 153 -34 189 -35 113 -48 184
-60 317 -6 72 -15 152 -21 178 -5 27 -9 71 -9 98 0 31 -8 66 -21 91 -13 26
-19 52 -16 72 2 17 -2 67 -9 111 -41 238 -44 1896 -5 2210 6 44 13 114 17 155
4 41 13 92 20 113 13 37 17 71 50 426 9 95 22 192 31 215 22 63 40 166 58 340
13 123 23 175 45 233 20 52 32 107 40 186 6 67 24 160 45 233 19 67 41 164 50
215 8 52 19 108 24 124 45 148 61 213 71 289 7 49 25 119 40 157 30 71 44 133
55 234 4 33 20 88 35 122 33 71 45 114 55 193 4 30 24 102 45 160 21 58 41
134 45 170 4 39 23 102 45 155 21 50 41 115 45 145 8 65 25 123 59 205 13 33
31 101 39 150 9 52 28 117 45 155 17 36 36 94 42 130 18 94 39 168 60 204 11
17 26 74 35 126 9 52 32 131 51 175 18 44 40 120 48 169 10 58 26 110 45 148
34 64 39 109 16 128 -24 20 -139 3 -237 -36 -64 -26 -120 -39 -206 -50 -65 -8
-143 -21 -173 -30 -158 -46 -202 -54 -342 -68 -143 -14 -223 -32 -254 -57 -7
-6 -59 -15 -115 -19 -233 -18 -346 -33 -400 -51 -32 -10 -73 -19 -92 -19 -19
0 -47 -5 -63 -11 -26 -10 -340 -37 -493 -43 -37 -1 -89 -11 -122 -24 -36 -14
-80 -22 -116 -22 -32 0 -83 -5 -113 -10 -56 -10 -463 -30 -724 -34 -122 -3
-158 -7 -190 -22 -34 -16 -79 -20 -290 -27 -296 -11 -1539 -12 -1875 -2 -213
6 -238 9 -275 28 -34 19 -57 22 -160 23 -194 1 -615 23 -675 35 -30 7 -74 11
-97 10 -23 -1 -59 6 -80 15 -41 17 -119 30 -283 44 -58 5 -158 14 -223 20
l-119 12 -33 -36 c-18 -20 -37 -36 -43 -36 -6 0 -30 16 -54 35 -109 88 -119
94 -171 99 -193 18 -249 27 -307 44 -85 27 -206 50 -304 58 -86 7 -148 21
-239 53 -32 11 -115 27 -185 36 -92 12 -145 25 -194 46 -43 19 -106 35 -180
46 -69 10 -140 27 -183 45 -40 16 -115 35 -175 44 -58 9 -117 22 -132 30 -53
27 -135 53 -207 64 -73 12 -107 23 -186 61 -23 10 -65 23 -94 29 -92 17 -134
30 -186 55 -27 14 -77 30 -110 35 -82 15 -122 28 -160 55 -18 12 -62 28 -97
35 -34 7 -102 30 -150 52 -47 21 -113 44 -145 50 -32 6 -83 26 -113 44 -30 18
-87 40 -127 49 -45 10 -85 27 -107 44 -22 18 -59 33 -98 41 -35 7 -73 19 -85
26 -65 41 -105 58 -166 75 -37 11 -86 33 -108 49 -25 18 -65 34 -101 41 -41 8
-72 22 -98 44 -21 17 -60 37 -87 44 -58 15 -96 33 -142 66 -19 14 -52 28 -73
31 -21 4 -55 20 -76 36 -46 37 -78 53 -119 61 -18 4 -53 22 -78 42 -25 19 -70
42 -99 50 -30 9 -62 25 -72 36 -22 24 -76 53 -118 63 -16 4 -47 22 -69 41 -22
19 -52 37 -68 40 -16 4 -49 24 -74 44 -26 21 -64 44 -86 50 -22 7 -57 28 -77
46 -20 19 -52 40 -71 46 -20 7 -51 25 -69 40 -18 16 -52 39 -75 50 -23 12 -61
39 -85 60 -24 21 -56 40 -71 44 -16 3 -39 17 -52 31 -12 13 -43 36 -68 51 -25
14 -59 39 -75 55 -17 16 -46 38 -66 48 -20 10 -42 26 -50 35 -7 9 -34 28 -59
42 -25 15 -66 44 -91 65 -116 101 -146 127 -199 176 -32 28 -62 52 -68 52 -5
0 -27 15 -49 34 -21 19 -73 63 -114 97 -98 81 -147 125 -314 283 -76 72 -146
135 -154 140 -21 12 -110 103 -144 147 -14 19 -79 89 -144 156 -146 149 -206
217 -229 263 -10 19 -26 41 -37 48 -10 7 -27 30 -37 50 -11 20 -30 48 -43 62
-13 14 -36 42 -52 63 -25 33 -33 37 -72 37 -36 0 -51 -6 -81 -33z m-2653
-2497 c0 -21 -24 -28 -35 -10 -8 14 3 30 21 30 8 0 14 -9 14 -20z m-1187 -781
c30 -16 37 -28 37 -66 0 -61 -80 -86 -119 -37 -27 35 -26 59 4 89 27 28 45 31
78 14z m6575 -755 c25 -18 30 -65 8 -83 -8 -7 -27 -11 -43 -9 -50 6 -65 80
-19 98 29 12 29 12 54 -6z m-7689 -121 c6 -20 8 -40 5 -45 -9 -15 -40 -8 -59
12 -15 17 -16 24 -7 45 18 39 49 33 61 -12z m89 -79 c27 -19 28 -36 3 -58 -26
-24 -57 -13 -70 26 -6 17 -11 35 -11 39 0 15 54 10 78 -7z m1297 -33 c8 -26
-5 -53 -24 -49 -29 6 -27 68 3 68 8 0 17 -8 21 -19z m-3145 -41 c28 -28 27
-84 -2 -104 -27 -19 -98 -22 -98 -3 1 32 20 90 36 108 22 24 39 24 64 -1z
m4545 -253 c17 -25 19 -70 5 -97 -12 -22 -61 -40 -112 -40 -63 0 -109 62 -79
108 11 18 130 60 153 54 10 -2 25 -14 33 -25z m1920 -422 c0 -24 -5 -31 -23
-33 -27 -4 -38 19 -22 48 17 31 45 22 45 -15z m2901 -266 c25 -28 8 -54 -37
-54 -28 0 -35 4 -37 23 -7 49 40 69 74 31z m6009 -1884 c0 -25 -4 -30 -25 -30
-16 0 -26 6 -28 18 -6 30 6 49 30 45 18 -2 23 -9 23 -33z m1206 -331 c25 -23
24 -66 -2 -90 -16 -14 -36 -19 -81 -19 -54 0 -63 3 -81 27 -25 34 -15 75 23
96 32 17 116 8 141 -14z m282 -213 c24 -24 34 -95 17 -126 -17 -32 -70 -49
-125 -41 -53 8 -70 27 -70 76 0 94 116 153 178 91z m-13532 -1160 c87 -10 101
-14 224 -79 65 -34 71 -41 88 -87 22 -62 16 -157 -12 -214 -22 -42 -69 -71
-152 -91 -55 -14 -266 -9 -425 10 l-111 13 -53 -29 c-75 -41 -80 -53 -85 -192
-7 -180 -35 -166 337 -172 l303 -6 85 -43 c124 -63 124 -64 129 -177 4 -118
-10 -171 -56 -216 l-34 -33 -373 -5 c-424 -6 -407 -2 -452 -91 -23 -47 -25
-58 -18 -128 3 -42 15 -98 25 -124 11 -27 19 -73 19 -106 0 -54 3 -62 32 -86
21 -18 38 -25 52 -20 77 22 699 34 765 15 76 -22 100 -65 126 -227 19 -115 9
-140 -72 -183 -32 -16 -74 -39 -93 -50 -19 -11 -45 -20 -57 -20 -25 0 -149
-24 -233 -45 -50 -13 -210 -28 -270 -26 -14 0 -83 2 -155 5 -97 3 -144 9 -185
24 -30 11 -89 24 -130 27 -132 12 -150 27 -193 155 -21 64 -27 107 -37 290 -6
118 -16 237 -22 264 -7 34 -7 80 1 158 l12 110 -29 61 c-29 60 -30 66 -28 202
1 128 3 143 25 178 21 35 23 45 17 115 -4 42 -2 109 4 147 5 39 14 135 19 215
12 188 59 346 121 405 34 32 83 40 344 55 105 6 192 13 195 16 8 7 240 -2 352
-15z m-5491 -29 c80 -4 150 -11 156 -15 28 -17 173 -39 341 -51 166 -12 185
-16 227 -40 25 -15 50 -35 56 -46 11 -20 34 -205 32 -253 -2 -41 -31 -95 -63
-118 -16 -11 -65 -26 -112 -35 -47 -8 -111 -23 -142 -34 -80 -27 -197 -27
-248 0 -20 11 -53 20 -73 20 -47 0 -97 -49 -114 -111 -21 -76 2 -342 44 -514
37 -153 52 -422 33 -586 -14 -114 -20 -135 -61 -220 -38 -78 -56 -103 -107
-146 -88 -76 -119 -74 -229 14 -53 43 -90 93 -90 121 0 7 -18 44 -40 81 -22
37 -40 76 -40 87 0 10 -15 84 -32 164 -18 85 -33 187 -35 246 -4 92 -3 106 19
145 19 37 23 61 25 149 1 58 5 197 8 310 9 276 9 275 -167 305 -51 8 -113 20
-138 26 -253 57 -251 56 -287 91 -19 18 -41 45 -49 60 -18 34 -18 109 0 152
18 42 117 124 159 130 18 3 53 8 80 11 26 4 79 17 119 31 60 20 91 24 197 25
69 0 144 4 166 9 40 9 90 8 365 -8z m3109 -32 c21 -10 60 -25 87 -31 34 -9 65
-28 108 -68 75 -68 82 -79 90 -165 4 -38 15 -101 25 -140 49 -188 53 -237 47
-656 -5 -451 -14 -587 -41 -645 -14 -31 -17 -61 -16 -135 2 -118 -23 -274 -52
-316 -11 -17 -43 -47 -70 -65 -65 -44 -118 -45 -202 -4 -57 29 -62 34 -103
115 -24 47 -50 105 -59 130 -20 60 -36 250 -37 440 -1 140 -3 159 -23 196 -47
87 -107 98 -475 87 -243 -8 -259 -9 -279 -29 -20 -21 -21 -30 -23 -380 l-2
-359 -54 -94 c-60 -103 -86 -126 -140 -125 -36 1 -134 50 -163 82 -19 21 -91
164 -106 212 -16 51 -35 247 -35 375 -1 96 -4 114 -24 145 -22 34 -22 40 -22
376 0 313 2 346 21 415 11 41 28 138 38 215 17 135 20 144 55 189 20 26 41 66
47 89 11 44 63 104 117 138 39 24 81 19 151 -17 59 -30 105 -80 121 -130 7
-22 24 -67 37 -100 24 -56 25 -68 21 -215 -3 -140 -5 -159 -27 -196 -47 -83
-16 -104 154 -104 66 0 182 5 257 10 123 9 147 8 240 -11 l103 -21 15 23 c12
19 15 71 15 309 0 198 4 297 12 325 14 43 113 155 139 155 8 0 32 -9 53 -20z
m19298 -2312 c33 -31 32 -95 -2 -132 -32 -35 -96 -37 -119 -4 -28 40 -11 136
26 151 31 13 73 6 95 -15z m-8947 -17 c17 -32 12 -89 -9 -110 -27 -27 -84 -36
-121 -21 -62 26 -44 95 33 131 54 24 84 24 97 0z m4995 -670 c30 -20 128 -146
139 -178 5 -15 22 -47 38 -70 16 -24 37 -75 48 -115 20 -81 22 -87 56 -174 35
-90 50 -274 35 -429 -11 -108 -16 -128 -52 -202 -33 -67 -40 -90 -37 -129 2
-38 8 -51 30 -67 24 -18 42 -21 140 -21 112 1 114 1 198 42 47 23 95 42 107
42 33 0 72 17 114 50 20 17 57 37 81 46 23 8 60 29 81 46 22 17 69 39 105 50
37 11 78 28 92 38 38 27 97 40 185 40 105 0 135 -17 164 -95 18 -48 21 -78 21
-218 0 -225 -24 -393 -67 -474 -14 -27 -33 -80 -43 -120 -11 -39 -31 -90 -45
-111 -15 -22 -41 -80 -60 -130 -18 -50 -40 -101 -49 -114 -8 -12 -27 -54 -41
-91 -14 -38 -34 -81 -46 -96 -11 -15 -27 -54 -35 -87 -8 -32 -21 -75 -29 -94
-73 -184 -68 -157 -74 -399 -3 -125 -2 -269 4 -324 9 -87 13 -101 35 -119 36
-29 130 -19 185 21 22 16 70 42 106 58 36 17 72 39 80 50 8 10 29 29 47 42 54
38 242 233 262 271 22 42 158 172 226 217 27 17 101 57 164 89 105 53 121 57
203 63 48 4 136 3 195 -2 93 -8 113 -13 156 -39 28 -17 72 -37 98 -45 27 -7
63 -27 81 -42 17 -15 50 -40 72 -54 22 -15 50 -34 62 -43 21 -15 25 -15 56 5
49 30 126 29 160 -3 61 -56 58 -157 -7 -265 -42 -70 -49 -93 -41 -131 10 -46
52 -89 111 -115 45 -20 57 -31 78 -74 52 -101 24 -141 -97 -141 -78 0 -97 -18
-97 -88 0 -84 -24 -207 -53 -285 -15 -38 -32 -99 -38 -135 -7 -39 -28 -98 -50
-143 -22 -41 -39 -82 -39 -90 -1 -22 -39 -102 -60 -124 -10 -11 -28 -45 -39
-75 -11 -30 -37 -77 -56 -104 -19 -27 -35 -58 -35 -68 0 -10 -17 -37 -39 -61
-21 -23 -47 -56 -58 -74 -30 -49 -86 -112 -268 -300 -93 -96 -189 -186 -212
-200 -24 -13 -53 -37 -66 -53 -13 -15 -41 -39 -63 -53 -21 -13 -48 -34 -59
-47 -11 -12 -42 -33 -70 -47 -27 -14 -61 -36 -75 -49 -14 -12 -42 -30 -62 -38
-21 -9 -52 -29 -71 -45 -18 -16 -57 -41 -87 -54 -30 -14 -71 -37 -90 -51 -19
-15 -59 -34 -88 -42 -29 -9 -65 -26 -80 -38 -36 -30 -86 -56 -110 -56 -10 0
-46 -18 -79 -40 -40 -27 -78 -44 -111 -49 -36 -5 -66 -19 -99 -45 -26 -20 -59
-39 -73 -42 -72 -14 -109 -28 -147 -55 -25 -18 -69 -35 -108 -44 -36 -7 -93
-29 -127 -48 -35 -18 -89 -39 -120 -46 -31 -7 -74 -24 -95 -38 -21 -14 -65
-35 -98 -45 -33 -11 -78 -30 -100 -43 -48 -27 -122 -51 -186 -60 -26 -3 -80
-22 -120 -41 -41 -20 -101 -40 -134 -46 -33 -5 -98 -26 -146 -47 -47 -21 -107
-41 -133 -45 -26 -4 -92 -25 -145 -46 -63 -25 -128 -43 -182 -50 -52 -6 -104
-20 -136 -36 -69 -33 -101 -42 -204 -59 -54 -8 -108 -24 -145 -43 -44 -22 -89
-34 -170 -46 -70 -9 -140 -26 -189 -46 -49 -20 -119 -37 -189 -46 -76 -11
-133 -25 -181 -46 -45 -20 -105 -35 -170 -44 -117 -17 -119 -17 -210 -54 -46
-18 -107 -32 -179 -40 -105 -12 -176 -30 -241 -63 -16 -8 -83 -22 -147 -31
-82 -11 -137 -24 -181 -44 -35 -16 -100 -34 -148 -41 -141 -21 -178 -30 -232
-55 -59 -27 -79 -32 -209 -50 -64 -9 -112 -23 -153 -44 -43 -21 -87 -33 -155
-42 -59 -7 -120 -23 -160 -40 -78 -33 -116 -45 -195 -61 -33 -6 -89 -26 -125
-44 -36 -18 -88 -36 -115 -40 -28 -4 -86 -24 -130 -45 -44 -21 -105 -43 -135
-48 -69 -13 -97 -24 -142 -54 -19 -13 -71 -32 -114 -42 -48 -10 -101 -30 -134
-50 -31 -19 -82 -38 -116 -45 -34 -6 -96 -29 -138 -51 -43 -22 -87 -40 -99
-40 -38 0 -93 -19 -133 -46 -25 -17 -72 -33 -133 -45 -52 -11 -109 -28 -125
-39 -56 -36 -96 -51 -164 -59 -76 -10 -114 -23 -148 -50 -23 -18 -44 -24 -174
-50 -31 -7 -89 -25 -130 -41 -40 -17 -115 -37 -166 -44 -51 -8 -119 -26 -151
-40 -70 -31 -122 -43 -228 -52 -55 -4 -108 -17 -170 -42 -59 -23 -119 -38
-175 -44 -47 -5 -132 -23 -190 -39 -158 -45 -168 -48 -256 -59 -44 -6 -109
-22 -145 -36 -82 -33 -115 -41 -219 -54 -77 -10 -177 -40 -207 -62 -6 -5 -67
-18 -134 -29 -87 -15 -141 -30 -183 -51 -38 -19 -91 -35 -145 -43 -120 -18
-139 -24 -196 -56 -34 -19 -75 -31 -126 -37 -51 -7 -104 -22 -158 -47 -45 -20
-111 -41 -146 -46 -58 -8 -184 -50 -211 -70 -5 -5 -50 -15 -100 -23 -108 -18
-135 -26 -199 -60 -30 -16 -78 -30 -121 -35 -45 -6 -101 -22 -152 -45 -54 -25
-107 -40 -163 -47 -59 -8 -100 -20 -139 -41 -39 -21 -87 -35 -166 -48 -74 -12
-138 -30 -190 -53 -56 -24 -105 -37 -167 -45 -70 -8 -99 -16 -138 -41 -35 -22
-72 -34 -122 -41 -111 -16 -169 -31 -202 -50 -40 -24 -127 -48 -198 -56 -38
-3 -82 -18 -124 -39 -63 -33 -145 -55 -208 -55 -17 0 -54 -11 -81 -25 -57 -29
-123 -49 -225 -69 -41 -8 -102 -28 -137 -46 -44 -21 -87 -34 -142 -40 -76 -9
-116 -23 -170 -60 -14 -10 -63 -23 -115 -29 -57 -8 -114 -23 -155 -41 -61 -28
-167 -60 -197 -60 -8 0 -60 -18 -116 -39 -56 -22 -136 -45 -177 -51 -47 -7
-94 -22 -130 -41 -36 -20 -95 -38 -174 -54 -69 -14 -130 -32 -145 -43 -33 -24
-81 -39 -156 -47 -36 -4 -94 -22 -145 -45 -47 -20 -117 -43 -157 -50 -40 -6
-103 -26 -140 -44 -40 -19 -101 -38 -148 -45 -50 -8 -105 -26 -146 -47 -45
-22 -97 -38 -160 -48 -61 -10 -113 -25 -150 -45 -35 -18 -93 -36 -146 -46 -48
-9 -118 -29 -155 -46 -36 -16 -99 -37 -140 -45 -40 -8 -95 -26 -123 -38 -62
-29 -101 -41 -190 -60 -38 -8 -101 -28 -139 -45 -39 -18 -102 -36 -145 -42
-48 -7 -102 -24 -146 -45 -44 -21 -103 -39 -159 -49 -51 -8 -105 -24 -130 -38
-36 -21 -106 -42 -215 -63 -18 -3 -61 -19 -95 -35 -34 -16 -102 -37 -151 -48
-50 -11 -119 -33 -155 -49 -36 -16 -108 -36 -159 -45 -62 -11 -110 -26 -144
-45 -37 -21 -83 -35 -157 -47 -70 -12 -124 -27 -162 -47 -31 -16 -99 -38 -152
-48 -53 -11 -122 -33 -155 -49 -40 -21 -90 -35 -156 -45 -73 -11 -106 -21
-135 -41 -29 -20 -66 -31 -142 -44 -57 -10 -123 -28 -147 -41 -55 -28 -117
-46 -203 -60 -36 -5 -97 -24 -134 -40 -42 -19 -106 -37 -168 -46 -56 -9 -135
-30 -176 -46 -41 -17 -123 -38 -183 -49 -59 -10 -133 -29 -165 -43 -69 -30
-117 -42 -202 -51 -79 -8 -119 -19 -185 -50 -32 -16 -91 -30 -165 -40 -121
-16 -171 -29 -207 -52 -28 -18 -119 -43 -158 -43 -44 0 -141 -27 -201 -55 -29
-14 -86 -28 -135 -34 -94 -12 -118 -19 -204 -54 -81 -34 -257 -51 -438 -44
l-138 5 -60 41 c-34 22 -77 45 -97 52 -50 16 -68 34 -88 85 -20 52 -14 80 30
142 19 26 37 57 41 70 9 30 131 153 186 188 24 15 56 37 71 50 15 12 44 28 65
34 21 7 74 30 118 51 46 23 107 44 145 50 36 5 99 21 140 36 107 36 131 41
263 58 65 9 137 22 160 31 71 25 137 41 245 58 63 10 122 26 152 41 60 30 150
55 202 55 44 0 97 20 148 55 26 18 59 27 125 35 61 7 111 20 154 41 35 16 103
36 150 45 47 9 106 24 131 34 25 10 68 27 95 38 28 11 84 24 125 27 53 5 96
17 145 40 67 32 121 47 212 60 24 4 80 22 125 41 53 22 113 38 168 45 55 6
106 20 145 39 33 16 83 33 110 39 112 23 174 40 250 69 44 17 121 38 170 47
50 9 108 27 130 39 45 26 67 32 181 51 47 8 105 25 140 43 33 17 82 33 109 37
108 14 162 28 220 55 36 17 101 36 160 46 69 11 121 27 167 50 37 19 79 34 93
34 51 0 181 32 226 55 25 13 75 29 110 36 86 16 142 32 218 64 35 15 106 33
158 40 74 10 106 20 144 44 38 23 72 34 149 45 55 8 121 24 147 36 80 36 126
49 209 61 72 10 94 17 179 62 17 9 62 19 100 23 39 4 93 15 120 26 140 55 176
66 240 72 78 8 113 19 165 53 24 15 67 28 132 37 52 8 113 22 134 31 84 36
148 55 227 65 60 8 98 20 142 45 46 25 80 35 148 44 48 6 109 20 135 32 88 39
127 51 220 64 68 10 108 22 147 44 36 20 80 35 127 42 105 16 188 37 246 64
29 14 88 28 141 34 97 12 116 18 198 57 30 15 84 30 128 35 76 10 154 35 200
65 13 8 63 22 111 30 70 11 99 21 139 48 28 19 70 37 95 41 24 4 69 18 100 30
77 31 132 43 282 61 127 14 147 19 258 64 30 12 97 28 148 35 69 10 107 22
148 45 40 22 80 34 150 45 55 8 118 25 149 40 62 29 156 55 200 55 45 0 128
26 158 50 14 11 52 25 84 30 157 27 179 32 198 44 34 22 147 55 222 65 44 5
95 21 130 39 39 19 92 34 163 45 71 12 129 28 180 51 50 23 107 39 173 49 57
9 119 25 150 40 69 34 79 36 174 52 45 7 121 29 170 48 54 21 115 38 158 42
45 4 92 17 130 35 68 32 111 45 206 60 36 5 97 24 135 41 40 18 104 36 154 44
115 18 135 23 207 56 36 17 95 34 140 40 50 6 105 23 153 45 51 23 105 38 172
48 65 10 122 26 175 49 51 23 106 39 160 46 55 7 105 21 155 45 51 24 103 39
173 50 66 10 122 25 167 46 37 17 96 35 131 40 35 5 109 27 164 49 65 26 125
43 169 47 44 4 96 18 144 39 72 31 112 43 228 65 29 5 78 23 110 39 39 20 86
33 143 41 59 7 104 21 154 45 46 23 102 40 165 50 58 10 125 30 171 50 43 20
106 39 148 45 45 6 96 22 139 44 47 24 92 37 151 45 63 8 100 20 145 45 40 21
82 36 121 40 73 9 160 32 190 52 27 18 101 39 186 53 36 6 101 26 145 45 53
23 107 38 166 45 54 6 105 19 135 34 56 28 137 52 206 61 26 3 80 20 118 37
43 18 115 38 184 49 69 12 146 33 197 54 53 22 115 38 173 45 59 8 111 22 150
40 59 28 116 44 205 57 25 3 84 22 131 40 51 20 121 39 169 45 55 6 102 20
139 39 52 26 182 60 228 60 10 0 52 16 93 36 53 25 103 40 170 50 69 11 110
23 149 45 38 22 82 36 144 45 57 10 114 27 161 49 43 21 100 39 146 46 48 7
104 25 155 49 47 22 110 43 151 50 51 8 87 21 125 45 30 20 71 37 98 40 66 9
149 33 157 46 11 18 85 46 139 53 33 5 68 19 102 43 37 25 74 39 124 49 40 7
83 22 97 31 61 44 80 53 127 63 28 6 77 26 109 46 33 19 78 39 101 43 44 8
103 40 125 66 7 8 28 17 49 21 46 9 87 29 129 65 18 16 40 29 50 29 32 1 89
26 128 57 21 17 54 35 71 41 18 6 50 24 70 41 21 17 66 44 101 61 34 18 62 36
62 41 0 6 26 21 57 35 31 14 72 39 90 54 18 16 59 46 90 67 31 21 80 54 109
73 70 47 143 107 232 191 40 38 87 76 105 85 17 10 85 70 150 135 143 143 151
162 88 219 -45 42 -51 70 -21 100 16 16 32 19 77 18 99 -2 146 37 179 149 8
28 24 63 35 77 44 56 51 99 52 339 l2 229 -27 23 c-24 21 -33 22 -120 18 -107
-5 -275 -36 -316 -57 -16 -8 -35 -22 -42 -31 -8 -9 -30 -25 -49 -35 -36 -18
-109 -96 -169 -180 -122 -170 -273 -341 -344 -391 -18 -12 -47 -35 -64 -50
-19 -16 -50 -29 -78 -33 -25 -4 -79 -19 -119 -33 -95 -35 -245 -36 -319 -3
-26 11 -86 28 -133 36 -57 11 -96 24 -113 39 -15 12 -49 34 -75 50 -27 16 -61
47 -79 74 -17 25 -41 57 -53 71 -12 14 -30 50 -39 80 -10 30 -32 77 -49 105
l-32 50 -3 195 c-4 209 1 246 52 409 14 47 31 125 37 174 8 70 18 103 44 151
23 40 38 86 46 135 7 49 22 95 44 135 20 35 39 89 45 128 8 44 23 84 45 118
24 37 37 73 45 124 8 45 21 85 38 109 24 36 24 39 8 55 -14 14 -38 17 -154 17
l-137 0 -84 -39 c-90 -41 -163 -55 -294 -56 -114 0 -131 -12 -151 -102 -9 -40
-23 -118 -31 -174 -10 -68 -25 -124 -46 -170 -17 -38 -37 -104 -45 -146 -8
-49 -26 -101 -48 -140 -18 -35 -41 -97 -51 -138 -9 -41 -25 -84 -35 -95 -26
-27 -60 -104 -60 -136 0 -15 -8 -37 -19 -50 -26 -34 -57 -99 -65 -136 -4 -17
-25 -57 -47 -88 -21 -31 -43 -74 -48 -95 -5 -23 -26 -59 -49 -85 -23 -26 -44
-63 -51 -88 -5 -24 -20 -52 -32 -63 -12 -10 -33 -41 -46 -69 -14 -27 -40 -67
-58 -87 -17 -21 -37 -56 -44 -78 -7 -24 -25 -49 -46 -66 -19 -14 -44 -42 -55
-62 -12 -20 -31 -43 -41 -50 -11 -7 -31 -37 -46 -65 -14 -29 -37 -66 -52 -83
-14 -17 -48 -60 -76 -95 -27 -35 -91 -109 -143 -164 -51 -55 -114 -123 -140
-152 -101 -111 -395 -366 -436 -379 -12 -4 -35 -19 -53 -35 -18 -15 -49 -35
-70 -45 -21 -10 -59 -32 -85 -50 -27 -19 -74 -40 -110 -48 -35 -8 -92 -29
-127 -46 -86 -43 -168 -53 -396 -48 l-191 4 -74 41 c-41 23 -90 44 -108 48
-17 4 -55 22 -83 41 -28 20 -70 44 -95 54 -24 11 -54 29 -67 40 -12 12 -38 31
-57 42 -19 12 -53 38 -75 59 -149 140 -144 137 -220 118 -52 -13 -177 -113
-201 -162 -9 -18 -29 -45 -44 -62 -28 -31 -48 -64 -75 -125 -8 -19 -26 -50
-39 -68 -14 -18 -32 -56 -42 -84 -9 -28 -31 -71 -48 -95 -17 -23 -53 -73 -79
-110 -26 -38 -62 -88 -80 -111 -18 -24 -42 -58 -54 -75 -46 -67 -67 -89 -107
-114 -22 -15 -49 -36 -58 -49 -10 -12 -60 -45 -112 -73 -88 -47 -99 -51 -187
-57 -122 -8 -231 8 -281 42 -38 27 -101 53 -128 54 -9 0 -38 18 -65 41 -27 22
-61 47 -76 54 -37 19 -197 192 -220 237 -11 21 -32 52 -48 70 -35 40 -44 75
-65 233 -12 91 -14 132 -6 170 6 28 14 132 20 233 7 138 13 191 26 215 48 91
57 115 65 176 11 71 28 132 64 226 22 58 40 209 36 298 -1 21 5 66 13 100 8
35 14 117 14 188 1 148 -9 173 -84 209 -41 20 -53 22 -93 13 -25 -6 -68 -20
-96 -31 -27 -11 -68 -25 -90 -32 -22 -7 -53 -25 -70 -40 -16 -15 -46 -36 -65
-45 -38 -20 -170 -148 -170 -165 0 -7 -38 -51 -85 -100 -47 -49 -85 -95 -85
-103 0 -8 -17 -34 -38 -58 -21 -24 -49 -60 -62 -79 -38 -55 -98 -123 -129
-145 -15 -11 -51 -48 -78 -82 -45 -56 -52 -71 -63 -139 -6 -42 -11 -124 -11
-183 1 -99 -15 -875 -23 -1112 -2 -59 -10 -117 -17 -130 -6 -13 -15 -50 -19
-84 -20 -163 -41 -248 -81 -314 -21 -36 -39 -71 -39 -79 0 -50 -129 -172 -181
-172 -51 0 -175 76 -220 134 -21 28 -48 63 -60 77 -17 21 -23 50 -31 135 -13
133 -13 157 0 359 13 196 29 326 48 385 24 78 44 212 44 305 0 150 -30 175
-121 103 -81 -64 -189 -180 -195 -208 -16 -69 -37 -116 -71 -155 -53 -59 -129
-182 -142 -230 -6 -22 -27 -64 -46 -92 -20 -29 -38 -68 -41 -85 -9 -51 -25
-89 -61 -142 -18 -26 -33 -53 -33 -60 0 -6 -21 -37 -45 -70 -24 -32 -49 -75
-56 -95 -6 -20 -24 -49 -38 -66 -40 -44 -59 -78 -66 -118 -9 -45 -101 -157
-187 -224 -67 -52 -163 -140 -289 -263 -115 -113 -291 -254 -345 -276 -18 -8
-48 -27 -67 -43 -18 -16 -53 -37 -78 -47 -24 -10 -62 -30 -84 -46 -27 -19 -66
-33 -120 -43 -44 -8 -102 -26 -128 -40 -33 -17 -65 -25 -100 -25 -29 0 -69 -5
-89 -11 -41 -11 -97 -1 -253 45 -44 13 -102 29 -130 36 -27 6 -63 20 -80 31
-16 10 -50 28 -75 39 -56 26 -55 26 -121 77 -74 58 -234 219 -270 271 -29 40
-32 42 -82 42 -55 0 -122 -25 -146 -54 -8 -10 -31 -26 -50 -36 -39 -20 -242
-225 -278 -281 -13 -19 -35 -54 -50 -77 -16 -24 -47 -66 -70 -93 -24 -27 -52
-67 -62 -87 -11 -21 -27 -45 -37 -53 -9 -7 -25 -34 -36 -58 -10 -24 -34 -61
-53 -82 -19 -21 -41 -51 -50 -68 -8 -17 -24 -35 -36 -41 -11 -6 -35 -35 -53
-63 -31 -48 -160 -177 -253 -254 -60 -49 -252 -133 -331 -144 -37 -5 -83 -14
-102 -19 -86 -24 -342 -1 -394 34 -67 46 -236 230 -236 256 0 10 -20 57 -44
105 -27 54 -46 107 -51 141 -3 30 -19 89 -35 132 -29 81 -45 198 -41 294 2 31
-2 66 -9 78 -16 30 -50 22 -75 -18 -11 -18 -36 -53 -57 -77 -20 -24 -39 -58
-43 -74 -3 -16 -17 -40 -29 -53 -13 -13 -35 -46 -49 -74 -14 -27 -41 -69 -60
-92 -19 -22 -37 -56 -41 -74 -3 -18 -24 -56 -47 -83 -22 -27 -47 -65 -55 -84
-8 -20 -23 -45 -33 -56 -10 -11 -29 -40 -41 -65 -13 -25 -40 -65 -60 -90 -21
-25 -41 -56 -45 -70 -4 -14 -17 -36 -30 -50 -12 -14 -35 -45 -50 -70 -15 -25
-44 -64 -64 -87 -20 -23 -58 -69 -86 -103 -95 -118 -313 -328 -375 -360 -14
-7 -43 -30 -66 -50 -23 -21 -56 -41 -75 -45 -19 -4 -58 -23 -87 -42 -35 -24
-75 -40 -121 -49 -38 -7 -92 -24 -120 -38 -77 -40 -238 -59 -449 -54 l-172 4
-58 41 c-37 26 -75 44 -103 48 -71 11 -99 43 -99 113 0 54 -17 100 -55 147
-35 44 -51 82 -58 136 -3 20 -20 67 -37 105 -29 61 -34 84 -43 211 -9 112 -8
156 2 208 12 60 12 68 -4 85 -28 31 -63 25 -105 -19 -20 -21 -56 -51 -79 -66
-22 -15 -41 -32 -41 -36 0 -5 -24 -25 -53 -43 -29 -19 -73 -60 -97 -92 -48
-64 -327 -346 -405 -409 -27 -22 -67 -52 -90 -66 -22 -14 -51 -38 -64 -53 -14
-14 -43 -31 -65 -37 -23 -6 -71 -29 -107 -50 -41 -25 -78 -39 -100 -39 -19 -1
-60 -7 -91 -14 -40 -10 -77 -12 -121 -6 -35 4 -87 4 -117 -1 -111 -17 -190 32
-190 118 0 15 16 77 35 136 31 97 40 115 89 168 76 82 175 164 220 183 21 9
53 29 72 46 19 16 56 36 84 44 27 8 67 28 87 44 21 16 58 36 83 46 25 9 63 32
84 50 22 19 51 38 65 41 46 12 351 334 351 370 0 7 7 19 17 26 9 8 40 51 69
95 28 45 57 85 64 89 7 4 20 25 29 46 17 38 64 108 128 192 18 23 43 62 57 87
13 25 34 54 46 65 12 11 31 38 42 59 11 21 39 60 62 85 24 25 49 58 57 72 26
49 92 144 128 185 20 23 61 72 91 109 30 37 69 83 86 103 84 101 120 205 139
408 17 175 28 233 55 284 10 19 26 62 35 95 20 71 47 103 137 161 71 47 125
57 171 32 74 -39 156 -101 170 -130 90 -182 91 -185 91 -308 0 -104 -3 -123
-30 -195 -17 -44 -36 -109 -44 -145 -7 -36 -21 -77 -31 -91 -29 -41 -54 -107
-69 -177 -7 -35 -23 -79 -36 -98 -39 -57 -45 -74 -55 -143 -5 -36 -20 -86 -33
-111 -36 -69 -46 -112 -61 -270 -17 -175 -32 -270 -51 -330 -8 -25 -14 -65
-14 -89 0 -25 -5 -81 -10 -125 -8 -64 -22 -351 -32 -685 -2 -39 33 -75 62 -66
9 3 69 16 133 29 87 18 125 31 147 49 16 14 58 35 94 47 35 11 71 29 81 40 9
10 41 30 70 44 30 14 71 41 92 59 21 19 52 41 69 50 40 21 317 306 358 371 18
28 43 60 55 70 12 11 31 36 43 55 12 20 34 50 49 66 15 17 32 49 38 71 6 23
18 47 27 54 29 25 56 71 69 119 7 26 28 68 48 94 19 25 38 61 42 79 4 18 22
63 41 100 19 37 46 104 60 149 14 45 34 94 45 108 10 14 26 55 34 91 20 78 43
144 66 185 10 17 24 64 32 106 9 41 32 111 51 155 19 44 38 100 42 125 9 62
28 125 58 190 14 30 31 91 37 134 6 44 15 88 21 98 26 50 78 220 78 259 0 15
15 62 34 105 19 43 39 107 46 143 15 87 28 128 56 170 13 19 30 63 39 97 9 34
31 88 50 119 19 32 37 73 41 93 3 20 13 61 21 91 29 103 28 132 -4 162 -15 15
-54 42 -86 62 -52 31 -67 35 -126 34 -125 -1 -184 19 -212 73 -26 52 -24 87
11 161 16 34 30 73 30 85 0 13 26 51 62 92 55 61 76 75 171 122 99 47 117 53
191 56 44 3 93 9 107 14 29 11 49 46 49 85 0 14 7 38 15 55 9 16 20 66 25 110
5 44 12 84 16 90 3 6 7 43 9 82 9 216 28 416 46 467 10 30 19 70 19 90 0 19 5
51 10 70 6 19 15 79 21 134 7 71 20 123 44 185 19 47 41 113 49 145 9 33 23
69 31 80 9 12 29 41 45 66 70 104 127 169 172 195 26 14 50 30 53 35 21 33
112 -17 202 -110 69 -72 70 -74 108 -212 28 -104 28 -111 -5 -228 -10 -36 -23
-112 -29 -170 -7 -65 -20 -132 -36 -175 -46 -125 -55 -157 -55 -209 0 -28 -5
-78 -10 -111 -41 -240 -26 -375 45 -427 6 -4 92 -8 191 -8 l182 0 78 -40 c65
-32 85 -48 114 -91 48 -71 47 -125 -4 -231 -43 -90 -109 -160 -181 -193 -27
-13 -65 -35 -83 -48 -23 -17 -58 -29 -105 -37 -89 -15 -175 -38 -182 -50 -7
-11 -67 -28 -143 -40 -78 -13 -99 -36 -107 -119 -3 -36 -15 -109 -25 -161 -32
-157 -39 -207 -55 -410 -20 -257 -22 -271 -35 -305 -20 -53 -40 -205 -56 -425
-28 -392 -31 -424 -53 -496 -21 -69 -22 -80 -19 -575 3 -492 4 -505 25 -555
14 -33 21 -70 20 -105 -1 -71 32 -139 68 -139 13 0 40 11 60 24 20 14 56 28
80 32 25 3 68 21 97 40 29 18 64 38 78 45 14 6 39 18 57 26 79 38 386 364 408
433 4 14 20 41 36 60 15 19 43 64 62 100 18 36 43 83 55 105 11 22 29 60 39
85 10 24 28 56 39 70 12 14 31 58 42 99 12 40 28 81 35 90 23 26 46 76 57 126
6 25 26 77 44 115 19 38 42 95 51 127 9 32 29 76 44 98 30 43 51 96 51 129 0
21 3 27 52 111 15 25 30 63 34 83 3 20 25 75 48 122 24 47 51 108 60 137 9 28
23 57 31 63 16 13 55 111 55 138 0 9 16 39 35 67 20 27 40 67 47 90 6 22 28
81 49 130 20 50 40 103 43 118 4 16 26 50 50 75 23 26 48 61 55 79 7 17 22 40
33 50 11 10 33 43 48 73 15 30 38 64 50 75 12 11 36 40 53 65 41 60 254 278
292 297 17 9 50 32 75 52 42 34 158 97 225 121 106 39 411 52 580 24 132 -22
250 -84 352 -185 92 -90 137 -159 163 -248 18 -65 23 -81 61 -189 23 -66 24
-123 3 -169 -19 -40 -44 -58 -94 -68 -19 -4 -56 -23 -81 -41 -60 -44 -105 -45
-169 -4 -25 16 -66 36 -90 45 -25 9 -58 29 -75 44 -16 16 -50 39 -75 51 -24
13 -60 35 -80 50 -77 60 -209 83 -317 55 -73 -19 -79 -24 -243 -185 -47 -46
-110 -104 -140 -130 -32 -28 -71 -74 -94 -114 -21 -37 -42 -69 -46 -71 -18
-11 -131 -255 -144 -310 -7 -33 -27 -90 -44 -127 -17 -36 -33 -92 -37 -125 -4
-32 -11 -83 -16 -113 -5 -30 -13 -94 -18 -142 -6 -47 -20 -119 -32 -158 -26
-87 -23 -183 9 -280 11 -36 28 -119 37 -185 26 -184 31 -206 69 -270 67 -117
45 -107 267 -113 304 -8 482 17 528 72 8 9 37 23 66 32 30 8 59 22 66 31 8 9
46 40 86 69 40 29 91 77 114 106 23 29 47 56 54 60 7 5 29 32 49 60 21 29 48
68 61 87 14 19 25 42 25 51 0 9 18 38 41 64 23 26 47 68 55 93 8 26 26 59 40
74 14 14 35 55 47 90 13 35 35 83 50 105 16 23 37 65 48 94 25 65 59 109 179
230 114 114 165 158 205 175 50 22 63 44 75 133 12 93 28 142 63 204 14 24 30
59 36 79 6 20 23 51 37 70 14 19 33 53 44 76 10 23 30 52 45 65 14 12 36 39
47 58 12 19 39 54 60 77 21 24 38 47 38 52 0 6 19 33 43 61 84 99 101 123 124
168 13 25 23 55 23 68 0 12 18 44 40 70 22 27 46 67 53 89 6 22 29 73 49 113
21 40 38 85 38 100 0 24 21 73 67 157 11 20 17 57 19 112 1 59 6 89 18 105 73
101 70 93 77 227 4 81 14 152 28 199 11 39 30 103 41 141 11 38 24 131 30 206
11 147 17 180 55 320 14 53 28 147 35 230 15 192 27 265 56 338 18 44 27 96
34 182 14 166 19 201 40 270 28 87 49 221 59 374 7 113 12 137 30 160 12 14
33 43 47 65 14 21 54 66 89 101 52 51 74 65 114 75 66 16 140 -7 176 -53 71
-93 98 -132 106 -156 19 -55 39 -250 39 -373 0 -125 -27 -343 -50 -404 -7 -16
-8 -59 -4 -109 6 -72 4 -86 -16 -124 -13 -27 -22 -62 -22 -90 0 -25 -6 -75
-13 -111 -7 -36 -16 -110 -20 -165 -4 -59 -17 -129 -31 -173 -31 -97 -53 -252
-60 -425 -6 -136 -7 -145 -41 -216 -33 -70 -34 -76 -22 -113 7 -23 30 -54 53
-75 39 -33 43 -34 96 -28 75 9 117 28 160 73 49 51 130 112 148 112 8 0 36 21
62 48 69 68 134 120 165 132 34 13 263 13 358 0 56 -8 98 -22 164 -56 105 -55
127 -74 159 -136 13 -26 29 -50 35 -53 6 -4 31 -37 55 -74 24 -36 53 -77 64
-91 21 -26 60 -186 60 -246 0 -17 8 -55 18 -85 16 -47 19 -94 21 -371 2 -309
1 -319 -20 -360 -13 -26 -23 -65 -24 -98 -2 -30 -8 -111 -15 -180 -6 -69 -15
-168 -20 -220 -5 -52 -18 -121 -29 -152 -12 -32 -21 -73 -21 -92 0 -19 -7 -61
-15 -93 -19 -71 -19 -153 -2 -178 12 -16 23 -17 83 -11 44 4 85 15 114 31 25
14 77 41 115 60 132 66 260 185 300 277 8 18 28 49 45 68 37 42 55 74 64 116
4 18 16 40 27 50 11 10 29 49 40 88 28 96 37 121 70 191 15 33 33 88 38 123 6
35 24 91 40 124 17 33 38 94 46 134 8 40 31 109 50 153 20 44 40 106 46 136 6
31 25 87 44 126 22 47 36 92 40 137 4 37 13 92 21 123 8 31 14 72 14 92 0 20
15 62 35 101 19 37 35 74 35 82 0 8 10 36 21 62 12 26 30 65 40 88 10 22 21
65 25 95 4 33 20 79 41 117 20 35 43 95 53 133 10 39 30 87 44 108 15 21 37
69 50 109 12 39 36 86 52 105 16 19 42 56 57 83 27 47 64 99 154 217 23 31 61
70 84 89 22 18 61 50 85 71 25 20 51 37 58 37 8 0 39 20 71 44 36 29 71 47 98
51 23 4 71 22 107 40 83 42 186 53 273 30 32 -8 68 -15 81 -15 13 0 48 -11 77
-23 30 -13 80 -29 112 -35 38 -8 75 -24 105 -46 26 -18 64 -41 85 -49 43 -18
272 -244 282 -279 4 -13 27 -55 51 -94 24 -39 44 -81 44 -94 0 -13 16 -53 36
-89 30 -54 39 -85 50 -166 15 -113 17 -272 5 -420 -8 -89 -13 -108 -50 -179
-22 -43 -41 -87 -41 -96 0 -47 -272 -335 -357 -379 -21 -10 -47 -28 -57 -40
-11 -12 -43 -28 -72 -37 -28 -8 -72 -30 -96 -50 -27 -20 -69 -40 -104 -49 -32
-9 -78 -29 -101 -44 -23 -16 -68 -36 -101 -45 -33 -8 -81 -29 -107 -45 -26
-17 -73 -36 -104 -42 -65 -14 -107 -33 -138 -62 -12 -11 -45 -26 -73 -33 -61
-16 -188 -107 -196 -142 -10 -38 27 -153 62 -192 17 -19 46 -59 64 -89 38 -61
97 -108 149 -117 20 -4 68 -24 106 -44 l70 -38 105 8 c61 4 122 14 145 24 57
25 114 43 160 51 48 8 104 36 129 64 11 12 26 21 35 21 24 0 114 44 130 64 8
10 36 28 61 41 25 13 53 31 61 41 8 9 31 30 52 45 21 15 72 65 115 112 42 47
103 107 135 133 32 26 70 68 84 93 15 25 36 57 49 71 12 14 32 45 44 70 12 25
37 65 55 90 18 25 38 68 44 95 7 28 23 68 36 90 40 65 55 103 62 153 3 29 19
67 40 100 27 42 37 71 48 140 8 52 27 119 48 167 20 44 38 103 42 130 10 72
33 150 61 204 14 27 28 78 34 126 9 72 19 107 66 225 8 19 21 64 28 100 8 36
31 103 52 150 32 71 38 99 42 171 6 118 -10 150 -127 259 -178 166 -256 247
-285 294 -38 63 -56 163 -56 309 0 151 14 243 50 337 16 41 35 101 44 133 8
32 22 68 30 80 9 12 36 51 60 87 97 144 253 270 401 327 102 39 462 56 510 24z
m-17740 -2641 c40 -16 237 -50 287 -50 52 0 141 -23 210 -55 30 -14 78 -29
107 -35 30 -6 66 -21 83 -35 39 -33 74 -50 117 -59 18 -3 49 -19 68 -36 18
-17 55 -41 81 -54 27 -14 55 -32 63 -42 8 -10 32 -29 54 -43 70 -45 189 -149
208 -181 10 -16 35 -50 55 -75 48 -57 89 -114 129 -179 17 -28 41 -63 53 -78
11 -15 32 -60 45 -99 14 -40 36 -86 50 -104 13 -18 30 -55 36 -82 20 -83 47
-176 70 -238 13 -37 25 -102 30 -170 5 -60 12 -126 16 -145 15 -64 5 -486 -16
-690 -16 -158 -25 -207 -46 -259 -15 -35 -35 -105 -45 -155 -12 -56 -32 -117
-54 -159 -20 -38 -36 -82 -36 -98 0 -36 -21 -88 -53 -131 -13 -18 -32 -64 -42
-101 -10 -38 -31 -84 -46 -104 -16 -19 -38 -60 -49 -91 -12 -32 -32 -68 -45
-82 -13 -14 -31 -41 -39 -61 -8 -20 -32 -58 -51 -84 -20 -26 -45 -66 -56 -89
-10 -22 -35 -61 -55 -86 -19 -25 -59 -76 -87 -114 -81 -107 -110 -139 -302
-334 -99 -101 -199 -194 -223 -208 -23 -14 -50 -36 -60 -48 -9 -12 -38 -36
-63 -53 -25 -17 -52 -39 -60 -49 -8 -9 -39 -28 -69 -41 -30 -14 -68 -37 -85
-53 -16 -16 -55 -40 -85 -53 -31 -14 -62 -32 -69 -40 -7 -9 -42 -26 -77 -37
-36 -12 -77 -32 -92 -44 -42 -35 -62 -43 -127 -51 -33 -4 -76 -15 -95 -25 -19
-10 -53 -27 -75 -38 -41 -21 -239 -48 -319 -44 -22 1 -70 -9 -108 -23 -52 -19
-89 -25 -151 -25 -89 0 -134 -18 -158 -61 -19 -37 -36 -126 -49 -264 -6 -71
-16 -151 -20 -176 -5 -25 -7 -61 -4 -80 4 -25 -1 -47 -20 -82 -21 -39 -25 -60
-25 -125 1 -42 -4 -113 -9 -157 -6 -44 -14 -174 -17 -288 -4 -115 -11 -232
-15 -260 -11 -72 -49 -257 -55 -267 -3 -4 -9 -51 -15 -104 -6 -56 -21 -126
-36 -168 -15 -40 -38 -111 -52 -158 -14 -47 -37 -101 -52 -120 -15 -19 -36
-57 -47 -85 -41 -102 -205 -293 -279 -325 -23 -10 -57 -32 -76 -49 -20 -17
-55 -40 -79 -51 -24 -10 -59 -30 -78 -44 -19 -14 -59 -33 -90 -42 -30 -9 -73
-25 -95 -36 -62 -32 -124 -47 -242 -59 -134 -15 -310 -15 -469 -1 -132 12
-172 21 -244 57 -27 14 -80 31 -118 39 -39 9 -105 33 -147 56 -42 22 -83 40
-91 40 -7 0 -35 16 -60 36 -26 20 -66 42 -88 50 -22 8 -59 31 -82 52 -23 20
-71 60 -106 87 -82 64 -246 231 -266 270 -9 17 -33 49 -54 72 -21 22 -43 60
-49 83 -6 23 -25 65 -42 93 -35 56 -52 128 -69 287 -14 128 -14 148 -1 280 24
235 39 306 76 360 19 27 37 68 41 91 4 22 19 55 34 72 16 18 41 55 56 82 37
65 169 211 209 232 17 9 53 33 79 54 31 24 66 41 100 49 28 6 68 20 87 32 34
22 139 39 240 41 71 1 193 -19 228 -37 17 -9 71 -26 119 -37 60 -14 97 -29
122 -50 20 -16 41 -29 47 -29 21 0 180 -163 202 -207 12 -23 27 -45 33 -49 30
-18 60 -174 61 -315 0 -101 -49 -177 -127 -198 -79 -21 -201 -7 -240 28 -11
11 -40 29 -65 41 -25 13 -65 40 -89 61 -24 22 -51 39 -60 39 -9 0 -48 20 -85
45 l-69 45 -118 0 c-152 0 -162 -7 -189 -130 -10 -47 -31 -121 -47 -165 -39
-112 -37 -201 5 -309 17 -43 34 -97 37 -120 4 -23 19 -63 33 -88 15 -24 36
-60 47 -79 32 -54 126 -148 180 -180 28 -17 69 -45 92 -64 27 -21 62 -38 97
-45 30 -6 83 -25 117 -41 82 -40 137 -49 299 -49 164 0 238 12 305 50 28 16
76 35 109 43 35 10 64 24 73 36 8 12 38 36 67 55 51 33 146 144 146 171 0 8
12 27 26 44 32 38 64 120 64 164 1 17 10 57 21 87 11 30 29 78 38 105 11 30
23 109 30 200 17 223 31 333 52 400 17 57 24 109 49 370 7 80 19 136 44 205
69 194 69 373 0 457 -41 50 -76 76 -132 98 -23 10 -42 21 -42 26 0 14 -41 37
-115 63 -37 14 -80 36 -94 50 -14 13 -40 31 -58 40 -43 22 -65 47 -102 116
-20 36 -31 72 -31 96 1 54 55 152 100 181 19 12 55 37 80 55 45 32 45 33 180
36 143 3 136 5 211 -49 40 -29 77 32 119 196 l24 90 0 795 c1 790 1 795 23
850 32 82 54 163 63 233 11 82 22 116 53 163 15 21 33 66 40 100 8 33 28 79
44 102 31 42 47 77 57 123 3 15 22 46 41 69 19 23 39 59 45 79 5 21 24 56 41
77 17 22 37 55 45 74 8 19 28 51 43 70 16 20 39 56 51 80 41 80 203 257 275
299 22 14 51 34 65 47 34 31 144 55 265 58 211 6 277 -50 231 -195 -29 -91
-87 -214 -115 -243 -16 -17 -36 -45 -45 -63 -9 -17 -66 -85 -127 -150 -141
-150 -224 -258 -238 -311 -13 -47 -39 -106 -63 -142 -19 -30 -33 -98 -49 -245
-7 -72 -18 -124 -32 -150 -36 -70 -56 -435 -56 -1027 0 -369 -1 -379 -24 -460
-30 -104 -47 -189 -57 -298 -5 -47 -11 -92 -15 -101 -3 -9 3 -26 14 -40 19
-24 23 -24 201 -27 243 -4 361 8 448 47 37 16 103 35 147 41 81 12 141 36 164
64 7 9 29 18 50 22 44 8 84 28 131 64 19 15 50 32 68 38 45 15 109 71 281 243
173 173 236 245 256 292 8 19 25 48 38 63 13 16 33 49 44 74 11 25 35 63 52
84 17 22 34 50 36 63 3 12 7 33 10 46 2 12 20 49 40 82 20 33 43 89 51 124 9
36 24 77 34 91 29 41 48 97 63 190 8 48 26 115 41 150 63 154 89 620 54 976
-15 152 -21 180 -52 257 -20 47 -41 108 -47 136 -7 32 -25 68 -49 99 -21 26
-42 61 -46 78 -4 16 -25 50 -48 76 -23 26 -66 76 -96 112 -30 36 -58 66 -61
66 -4 0 -34 25 -68 55 -34 30 -67 55 -74 55 -7 0 -36 18 -65 39 -36 27 -70 43
-110 51 -31 6 -88 27 -127 45 -86 42 -90 43 -250 56 -296 24 -408 27 -470 14
-33 -7 -109 -16 -169 -19 -108 -7 -204 -30 -255 -63 -13 -8 -64 -21 -115 -29
-70 -12 -104 -23 -147 -49 -31 -19 -79 -39 -106 -45 -28 -6 -75 -27 -104 -46
-30 -19 -79 -42 -109 -50 -30 -9 -68 -29 -85 -44 -16 -16 -55 -38 -86 -49 -31
-12 -66 -32 -79 -46 -12 -13 -44 -31 -69 -40 -25 -8 -65 -33 -88 -55 -24 -22
-55 -43 -70 -46 -16 -4 -45 -22 -65 -40 -20 -18 -49 -39 -65 -47 -15 -8 -37
-25 -48 -37 -11 -13 -38 -36 -60 -52 -22 -16 -115 -103 -208 -194 -158 -157
-275 -299 -292 -354 -4 -14 -15 -36 -25 -50 -34 -49 -61 -126 -71 -200 -5 -41
-14 -100 -20 -130 -27 -143 20 -709 71 -842 24 -63 46 -248 36 -300 -10 -55
-44 -70 -138 -62 -54 5 -94 17 -153 44 -44 20 -93 40 -108 44 -28 7 -177 144
-177 163 0 6 -16 30 -35 54 -35 44 -44 66 -85 209 -12 41 -28 92 -36 113 -10
27 -14 86 -14 213 0 196 11 288 45 384 13 36 26 97 30 135 9 80 29 148 57 187
10 15 26 60 34 100 10 48 27 91 50 125 19 29 41 72 48 96 7 23 29 64 50 91 20
27 43 64 51 83 8 20 27 50 42 68 16 18 55 66 88 105 117 141 457 468 523 504
9 5 34 24 55 43 20 18 44 33 52 33 9 0 34 17 58 39 23 21 65 50 92 64 28 14
58 34 69 46 10 11 41 28 69 37 27 9 66 31 86 50 22 19 57 38 85 45 27 7 69 28
94 47 28 21 68 40 105 48 32 8 78 28 101 45 24 16 70 36 104 44 34 8 93 30
130 49 49 25 93 38 153 46 58 7 106 21 154 45 48 23 90 35 135 39 36 3 97 8
135 12 39 3 88 9 110 14 22 5 56 10 75 10 19 0 58 8 85 18 42 14 83 17 255 15
128 -1 216 -6 235 -13z m8488 -767 c46 -51 24 -123 -38 -123 -39 0 -65 28 -65
70 0 60 66 94 103 53z m8526 -669 c46 -33 67 -136 36 -181 -16 -23 -57 -37
-85 -28 -9 3 -31 27 -48 53 -17 26 -41 60 -54 75 -29 36 -18 55 48 79 62 22
74 22 103 2z m-13984 -89 c36 -10 72 -28 95 -48 20 -18 53 -44 71 -58 42 -32
89 -119 89 -165 0 -37 -87 -231 -113 -252 -9 -8 -23 -35 -32 -60 -27 -79 -55
-102 -127 -102 -89 0 -115 10 -174 66 -31 30 -60 54 -64 54 -3 0 -31 44 -60
98 -54 96 -54 98 -58 194 l-4 98 41 69 c50 82 69 101 113 111 56 13 161 11
223 -5z m14557 -2592 c23 -20 24 -85 2 -107 -20 -21 -78 -21 -95 0 -19 23 -16
80 6 104 22 24 62 26 87 3z m352 -302 c24 -27 17 -65 -12 -69 -13 -2 -30 2
-38 8 -14 13 -19 61 -7 73 12 13 40 7 57 -12z m-25490 -197 c9 -8 16 -23 16
-32 0 -29 -30 -62 -56 -62 -27 0 -64 32 -64 55 0 23 37 55 64 55 14 0 32 -7
40 -16z m25530 -24 c15 -15 -4 -30 -40 -30 -38 0 -58 25 -33 41 15 10 58 3 73
-11z m-412 -1187 c10 -9 18 -24 18 -34 0 -23 -27 -49 -50 -49 -41 0 -52 83
-12 93 9 3 19 5 21 6 3 0 13 -6 23 -16z m-501 -91 c27 -23 20 -49 -16 -58 -30
-8 -73 9 -81 31 -16 41 55 60 97 27z m-2601 -277 c14 -8 56 -30 95 -50 89 -45
161 -112 175 -163 25 -96 -29 -212 -116 -247 -27 -11 -66 -34 -87 -51 -37 -30
-38 -30 -212 -41 -168 -11 -178 -13 -253 -47 -42 -19 -91 -38 -108 -41 -39 -7
-63 -34 -99 -105 -23 -46 -26 -64 -22 -109 7 -61 49 -138 87 -159 58 -30 318
14 416 71 33 19 86 40 119 47 33 7 77 21 99 32 58 30 125 48 177 48 37 0 58
-8 107 -39 92 -60 100 -85 62 -210 -21 -66 -27 -76 -97 -139 -41 -37 -97 -77
-125 -89 -28 -13 -65 -36 -83 -51 -21 -19 -52 -33 -93 -41 -42 -8 -76 -23
-106 -46 -25 -19 -63 -39 -85 -45 -48 -13 -148 -101 -168 -147 -11 -28 -11
-44 3 -110 9 -42 24 -100 35 -128 10 -27 19 -60 19 -73 0 -13 11 -34 25 -47
37 -38 104 -34 191 10 38 19 103 42 144 51 41 8 86 23 100 33 43 31 103 58
145 66 22 3 69 22 106 41 57 30 77 35 136 35 112 1 171 -18 196 -60 26 -44 22
-95 -9 -128 -15 -15 -38 -46 -51 -68 -36 -57 -168 -180 -238 -222 -33 -19 -72
-45 -86 -58 -15 -12 -54 -27 -87 -34 -33 -6 -76 -23 -96 -36 -42 -28 -126 -55
-174 -55 -19 0 -87 -18 -152 -40 -122 -41 -171 -48 -214 -29 -19 9 -36 9 -70
-1 -25 -7 -67 -13 -95 -13 -62 -1 -84 17 -118 93 -14 30 -35 78 -48 105 -13
28 -28 77 -35 110 -6 33 -28 101 -49 150 -21 50 -44 113 -50 140 -7 28 -22 73
-35 100 -32 71 -43 101 -61 175 -9 36 -27 81 -40 100 -23 34 -29 56 -55 183
-6 32 -25 87 -41 124 -23 49 -34 95 -45 187 -8 66 -19 132 -24 146 -30 79 -53
203 -54 286 -1 107 8 123 89 159 28 13 57 30 65 40 8 9 43 32 79 50 36 18 74
42 85 53 10 12 41 29 68 38 27 9 69 31 92 49 26 20 70 40 107 49 34 9 86 30
115 46 40 23 73 33 141 41 123 14 125 15 168 49 42 34 93 40 135 15z m2770
-347 c15 -21 34 -39 108 -107 45 -42 53 -71 26 -106 -30 -39 -147 -16 -191 37
-10 13 -30 31 -45 41 -23 14 -28 25 -28 57 0 52 17 87 49 99 34 12 62 5 81
-21z m641 -18 c39 -21 16 -78 -38 -94 -50 -15 -87 36 -59 79 18 27 61 34 97
15z m-317 -296 c29 -29 13 -94 -23 -94 -25 0 -44 52 -31 85 11 29 32 32 54 9z
m4259 -120 c-3 -8 -9 -14 -13 -14 -14 0 -22 20 -16 37 5 12 9 13 21 3 7 -6 11
-18 8 -26z m-9649 -18 c71 -17 101 -38 143 -100 17 -27 43 -60 57 -75 15 -16
29 -44 33 -64 5 -33 1 -40 -47 -91 -34 -36 -68 -61 -99 -72 -25 -9 -75 -30
-110 -47 -52 -25 -87 -32 -200 -44 -119 -12 -145 -18 -206 -47 -38 -19 -88
-37 -110 -41 -54 -9 -92 -33 -106 -67 -9 -23 -8 -42 6 -96 9 -37 20 -85 24
-107 10 -56 36 -101 63 -108 12 -4 47 0 78 7 30 8 75 17 100 21 25 4 78 25
117 46 40 21 90 41 110 45 57 9 122 29 178 54 80 37 134 32 240 -23 106 -54
125 -72 132 -124 4 -33 -2 -48 -42 -108 -62 -94 -150 -183 -205 -207 -25 -10
-56 -30 -70 -43 -19 -18 -48 -28 -114 -40 -52 -9 -108 -26 -135 -41 -31 -17
-76 -29 -139 -38 -99 -14 -124 -27 -124 -67 -1 -65 17 -153 36 -179 12 -15 35
-47 51 -71 17 -23 58 -72 92 -108 l61 -65 49 12 c26 7 86 17 133 22 107 13
141 24 170 55 13 13 46 31 74 39 33 10 64 28 86 51 46 48 113 68 182 55 28 -6
70 -10 93 -10 53 0 102 -32 132 -85 31 -54 29 -79 -12 -180 -37 -92 -113 -193
-166 -220 -15 -8 -48 -33 -74 -55 -32 -27 -56 -40 -76 -40 -31 0 -75 -19 -121
-53 -20 -15 -63 -25 -158 -38 -71 -10 -162 -30 -202 -43 -69 -24 -166 -40
-318 -52 -83 -7 -107 6 -143 76 -16 30 -37 64 -46 75 -10 11 -28 50 -40 86
-12 36 -32 76 -45 88 -14 13 -30 49 -41 89 -10 37 -33 92 -51 122 -18 30 -40
83 -48 118 -8 34 -28 87 -45 117 -20 34 -36 84 -45 134 -7 44 -22 97 -33 118
-11 21 -27 52 -36 68 -9 17 -20 66 -26 111 -6 45 -17 101 -26 125 -9 24 -25
69 -36 99 -11 30 -24 102 -30 160 -7 70 -20 133 -40 189 -21 60 -32 114 -38
188 -13 172 -6 183 132 194 99 7 135 18 182 53 16 12 60 30 98 40 37 10 78 27
92 37 31 25 81 46 142 59 26 6 72 26 100 46 42 27 71 37 140 48 118 18 206 19
277 2z m5961 -140 c18 -27 7 -72 -20 -82 -41 -16 -76 73 -37 95 27 16 40 13
57 -13z m-1678 -2 c9 -24 -10 -49 -37 -49 -31 0 -48 28 -31 49 17 21 60 21 68
0z m6332 -240 c42 -9 67 -44 51 -74 -21 -39 -82 -100 -100 -100 -39 0 -77 108
-52 147 7 11 46 31 63 32 4 1 21 -2 38 -5z m-3934 -54 c0 -8 -10 -16 -22 -18
-18 -3 -23 2 -23 18 0 16 5 21 23 18 12 -2 22 -10 22 -18z m-9030 -284 c133
-65 215 -162 215 -255 0 -54 -98 -139 -197 -171 -37 -13 -82 -33 -100 -46 -30
-23 -58 -32 -173 -54 -30 -6 -74 -24 -98 -40 -25 -17 -63 -32 -90 -35 -77 -10
-92 -15 -112 -35 -37 -37 -22 -135 35 -230 18 -30 36 -68 40 -85 11 -50 26
-73 56 -85 32 -14 49 -9 144 35 41 20 101 38 145 45 59 8 82 17 110 41 19 16
55 39 80 51 25 12 67 36 94 55 47 32 51 33 148 33 111 0 155 -15 202 -70 31
-38 40 -69 33 -119 -10 -80 -151 -252 -247 -302 -30 -16 -66 -38 -80 -49 -14
-11 -56 -28 -95 -39 -38 -10 -95 -29 -125 -41 -30 -12 -89 -29 -130 -37 -41
-8 -85 -17 -97 -19 -42 -8 -56 -57 -50 -169 6 -100 28 -178 63 -216 8 -9 21
-42 30 -75 8 -32 29 -87 45 -122 50 -102 66 -318 30 -397 -22 -49 -93 -115
-124 -115 -55 0 -193 121 -249 220 -14 25 -36 54 -48 65 -26 24 -50 67 -50 92
0 10 -21 49 -45 87 -25 38 -45 77 -45 87 0 10 -17 51 -39 92 -21 40 -44 96
-50 125 -6 28 -28 93 -50 144 -21 51 -42 118 -46 148 -3 30 -21 89 -40 130
-18 41 -38 104 -44 140 -16 92 -30 147 -57 211 -12 30 -29 93 -37 140 -9 47
-31 125 -50 174 -60 154 -75 253 -44 293 17 21 129 80 177 92 25 6 68 27 95
46 28 18 69 40 93 49 24 8 61 30 83 48 21 19 58 39 81 46 24 7 59 23 79 36 39
25 119 55 148 55 10 0 54 12 97 26 80 26 142 41 179 43 11 0 61 -19 110 -43z
m10243 -68 c17 -17 15 -43 -4 -59 -31 -26 -70 25 -44 56 15 18 32 19 48 3z
m-1230 -84 c47 -33 66 -102 35 -136 -25 -28 -45 -22 -91 27 -23 25 -46 45 -51
45 -5 0 -13 9 -16 21 -16 49 71 80 123 43z m-11093 -636 c92 -23 145 -80 145
-157 0 -112 -54 -187 -158 -222 -37 -12 -86 -32 -108 -46 -33 -19 -69 -26
-187 -38 -220 -22 -223 -23 -344 -81 -122 -58 -143 -80 -143 -149 0 -39 11
-66 45 -106 12 -14 31 -58 44 -97 23 -75 56 -117 96 -124 40 -8 185 31 229 61
43 29 75 41 165 62 30 6 75 24 100 40 55 35 179 54 281 44 53 -6 79 -15 142
-53 52 -31 81 -55 89 -74 16 -38 6 -101 -21 -135 -11 -16 -35 -47 -53 -71 -17
-24 -52 -56 -77 -73 -25 -16 -60 -41 -79 -54 -19 -14 -46 -25 -61 -25 -27 0
-159 -34 -250 -63 -25 -8 -94 -20 -155 -27 -143 -15 -187 -25 -201 -45 -16
-22 -17 -167 -2 -203 7 -15 19 -38 29 -52 16 -25 33 -88 44 -170 3 -25 19 -73
35 -107 44 -90 65 -266 38 -316 -21 -41 -81 -108 -109 -123 -35 -18 -100 -18
-142 0 -52 22 -208 202 -228 264 -6 20 -22 51 -34 67 -25 34 -55 114 -55 147
0 12 -15 49 -34 83 -24 44 -39 89 -50 156 -9 52 -32 138 -51 191 -24 67 -37
128 -45 204 -8 75 -21 134 -41 189 -23 61 -33 113 -44 222 -8 78 -24 174 -35
212 -11 39 -29 102 -40 141 -11 38 -20 87 -20 107 0 74 60 133 168 168 29 9
66 28 83 42 16 14 57 34 91 44 34 11 85 33 113 49 30 17 85 36 131 45 43 8
111 28 151 45 48 20 102 33 160 39 102 11 329 4 388 -11z m13156 -99 c9 -17 8
-25 -4 -36 -20 -21 -37 -8 -37 28 0 35 24 39 41 8z m-10639 -456 c22 -20 24
-76 3 -93 -9 -7 -38 -15 -65 -18 l-50 -5 0 40 c0 72 67 117 112 76z m-5158
-27 c33 -16 84 -37 114 -46 29 -9 77 -34 105 -56 83 -63 217 -196 237 -235 10
-19 25 -41 34 -48 8 -7 27 -45 42 -84 15 -40 35 -83 44 -97 25 -38 47 -108 60
-188 7 -40 25 -110 41 -155 36 -99 49 -225 49 -477 -1 -213 -12 -306 -44 -368
-13 -26 -36 -73 -50 -105 -14 -32 -37 -72 -51 -89 -14 -17 -33 -47 -41 -67
-21 -52 -228 -258 -283 -282 -24 -11 -59 -33 -77 -49 -48 -42 -102 -53 -222
-47 -98 5 -105 7 -170 45 -37 22 -84 45 -105 51 -22 5 -61 29 -88 53 -123 107
-244 228 -279 278 -21 30 -48 64 -60 75 -12 11 -33 41 -45 66 -13 25 -31 51
-40 59 -9 7 -29 42 -45 76 -16 35 -39 78 -52 96 -14 18 -32 60 -42 93 -10 33
-31 83 -47 112 -17 28 -38 91 -49 142 -10 50 -23 99 -28 108 -6 10 -19 55 -31
100 -17 67 -21 112 -21 242 0 143 3 168 24 233 69 206 75 217 201 355 27 30
63 62 80 70 16 9 49 32 73 51 27 22 59 38 90 43 26 5 74 22 107 38 33 17 69
32 80 35 11 2 112 4 225 3 205 -2 205 -2 264 -31z m13811 -351 c30 -29 30 -36
7 -65 -24 -30 -121 -39 -175 -17 -30 13 -37 21 -37 43 0 49 24 64 107 64 65 0
77 -3 98 -25z m-16132 -399 c34 -14 84 -31 111 -39 53 -15 121 -67 193 -149
34 -38 48 -69 79 -165 61 -191 50 -241 -55 -251 -46 -4 -58 -1 -109 30 -31 19
-79 43 -106 51 -27 9 -64 29 -83 43 -50 38 -114 54 -217 54 -130 0 -153 -9
-218 -83 -52 -58 -57 -70 -80 -162 -21 -86 -24 -119 -22 -233 3 -134 26 -346
46 -412 6 -19 21 -49 33 -66 13 -17 28 -48 34 -70 6 -24 41 -76 90 -135 95
-116 121 -129 249 -129 148 0 155 3 223 84 34 39 66 85 73 101 16 36 101 116
150 139 53 25 90 21 133 -16 117 -102 131 -175 64 -332 -21 -50 -44 -114 -51
-143 -6 -29 -18 -58 -27 -64 -8 -7 -27 -38 -43 -69 -19 -37 -51 -76 -94 -113
-63 -56 -68 -58 -153 -72 -103 -17 -188 -19 -264 -5 -30 5 -75 12 -100 15 -27
3 -66 18 -91 35 -25 16 -75 39 -111 50 -37 12 -82 34 -100 49 -17 16 -48 36
-67 46 -45 23 -244 226 -265 272 -10 20 -32 56 -51 80 -19 24 -41 68 -49 98
-9 29 -25 65 -35 78 -26 33 -40 70 -51 141 -5 32 -20 79 -33 105 -38 75 -46
139 -46 359 1 184 3 213 21 262 12 30 35 93 51 140 16 47 40 96 53 110 12 14
34 46 49 72 17 29 45 58 75 77 27 17 56 40 66 51 10 11 41 26 70 34 28 9 69
29 90 46 21 17 48 32 59 35 12 2 48 9 81 15 33 6 92 21 130 35 99 33 214 34
298 1z m-1329 -78 c21 -30 4 -58 -34 -58 -38 0 -55 28 -34 58 8 12 24 22 34
22 10 0 26 -10 34 -22z m-94 -169 c17 -40 0 -79 -33 -79 -32 0 -47 18 -47 56
0 22 7 38 21 48 27 19 44 12 59 -25z m200 -451 c49 -34 60 -56 36 -74 -11 -8
-35 -14 -55 -14 -61 0 -91 51 -54 92 21 23 33 23 73 -4z m-4058 -540 c55 -16
78 -49 78 -110 0 -39 -5 -54 -24 -73 -32 -31 -44 -26 -118 46 -66 65 -76 105
-36 133 27 19 48 20 100 4z m3512 -324 c21 -8 20 -28 -5 -94 -25 -66 -36 -80
-60 -80 -52 0 -66 124 -19 162 23 18 56 23 84 12z m10654 -2051 c24 -8 62 -16
85 -17 23 -2 81 -10 129 -19 69 -13 96 -24 131 -50 25 -19 65 -44 89 -56 59
-28 86 -58 155 -171 l58 -95 0 -150 c0 -133 -2 -153 -20 -181 -11 -17 -33 -53
-50 -79 -16 -27 -49 -68 -72 -91 -35 -35 -43 -49 -43 -80 0 -34 9 -46 88 -125
183 -182 191 -198 192 -362 0 -104 -14 -170 -45 -213 -13 -16 -30 -46 -38 -66
-16 -38 -105 -132 -172 -183 -22 -16 -46 -35 -53 -42 -20 -20 -43 -30 -84 -37
-20 -4 -59 -22 -87 -41 -46 -32 -60 -36 -183 -50 -79 -10 -151 -25 -178 -37
-42 -18 -67 -20 -335 -20 -241 1 -296 3 -327 16 -21 9 -54 16 -75 16 -21 1
-65 7 -98 15 -33 8 -81 15 -106 15 -31 0 -55 6 -70 19 l-24 19 3 664 c2 453 7
676 14 703 7 25 11 108 9 221 -3 171 -2 184 20 225 14 28 22 60 21 89 -2 71
17 138 45 160 32 25 53 25 108 0 62 -28 211 -31 275 -5 38 15 85 19 295 24
273 7 280 7 343 -16z m2603 7 c43 -12 73 -43 88 -91 7 -20 27 -58 46 -85 19
-27 35 -58 35 -69 1 -26 33 -96 63 -138 13 -17 29 -51 36 -74 6 -23 26 -64 45
-91 18 -28 43 -81 54 -119 12 -37 33 -84 47 -103 14 -19 33 -60 42 -90 9 -30
29 -79 45 -107 16 -29 40 -92 53 -140 12 -49 35 -117 50 -152 15 -35 33 -100
40 -145 7 -45 18 -92 23 -106 6 -14 20 -49 32 -79 34 -85 74 -614 50 -672 -16
-37 -56 -59 -110 -59 -22 0 -58 -9 -80 -20 -60 -31 -128 -43 -162 -29 -29 12
-58 54 -58 84 0 8 -18 51 -40 95 -30 60 -41 96 -46 150 -6 56 -13 80 -38 117
-17 25 -45 71 -62 101 -28 52 -37 59 -138 111 l-107 56 -187 0 c-172 0 -192
-2 -252 -24 -85 -32 -188 -88 -200 -111 -5 -10 -14 -58 -20 -107 -5 -50 -17
-109 -25 -133 -8 -23 -15 -52 -15 -64 0 -39 -61 -174 -86 -191 -50 -32 -124
-39 -245 -21 -139 20 -163 33 -155 84 9 55 24 179 40 337 12 113 21 158 50
235 19 52 40 128 46 169 7 52 21 94 43 135 19 34 41 91 50 128 9 37 28 84 42
104 14 21 35 68 46 105 11 36 29 75 39 86 22 24 55 88 64 124 3 15 21 45 40
68 19 22 42 63 51 90 9 27 23 55 31 62 9 7 29 39 45 71 16 32 45 79 64 104 19
25 38 58 41 72 4 15 23 44 42 66 19 21 43 58 54 83 10 24 32 58 47 76 16 18
34 42 40 55 7 13 27 32 44 42 28 17 51 20 177 20 80 0 161 -5 181 -10z m2919
-61 c129 -6 280 -12 335 -13 94 -2 104 -4 170 -39 58 -30 79 -49 119 -104 27
-38 53 -79 58 -93 70 -215 68 -206 68 -325 0 -98 -4 -124 -25 -177 -13 -35
-31 -98 -39 -141 -10 -56 -21 -86 -39 -105 -13 -15 -35 -44 -49 -65 -32 -48
-130 -136 -186 -167 -24 -14 -64 -49 -89 -80 -43 -53 -45 -57 -39 -105 8 -74
32 -147 61 -186 13 -19 39 -55 56 -81 17 -26 43 -56 57 -67 15 -10 49 -51 76
-91 65 -95 66 -133 6 -225 -41 -63 -63 -81 -183 -148 -46 -26 -96 -16 -174 34
-89 58 -129 102 -165 179 -17 36 -40 77 -52 91 -13 15 -30 59 -40 105 -9 43
-32 107 -51 142 -19 34 -35 73 -35 86 0 31 -30 117 -48 138 -8 10 -34 25 -58
34 -36 14 -76 16 -262 13 -199 -4 -222 -6 -241 -23 -25 -23 -51 -103 -51 -160
-1 -25 -12 -65 -30 -101 -38 -75 -37 -101 0 -175 50 -100 40 -245 -24 -333
-29 -40 -74 -49 -224 -45 -132 3 -134 3 -158 31 -21 25 -24 38 -24 115 0 48
-5 105 -10 127 -14 54 -13 1071 0 1150 13 80 12 197 -3 320 -7 56 -10 132 -7
171 3 39 2 84 -1 100 -4 16 -7 57 -8 91 -1 73 22 110 79 122 56 12 972 12
1230 0z m-13615 -3638 c10 -31 -5 -52 -34 -49 -26 3 -38 26 -27 54 8 21 53 18
61 -5z m3425 -303 c10 -13 38 -28 62 -33 52 -13 74 -47 58 -89 -8 -21 -16 -26
-43 -26 -41 0 -61 21 -76 76 -6 23 -18 45 -26 48 -17 6 -21 46 -4 46 6 0 19
-10 29 -22z"/>
</g>
</svg>
